<svg width="20" height="24" viewBox="0 0 20 24" fill="none" xmlns="http://www.w3.org/2000/svg">
<path fill-rule="evenodd" clip-rule="evenodd" d="M18.4936 20.5917C19.199 19.5117 19.462 18.9597 20 17.7478C16.0308 16.2358 15.3972 10.5599 19.3185 8.38795C18.123 6.87598 16.4373 6 14.8473 6C13.6996 6 12.9105 6.3 12.2051 6.57599C11.6074 6.80399 11.0694 7.00798 10.3999 7.00798C9.68257 7.00798 9.04894 6.77998 8.37944 6.53999C7.66212 6.27599 6.89698 6 5.94056 6C4.15922 6 2.25833 7.09198 1.05084 8.96394C-0.646812 11.6039 -0.347935 16.5478 2.38983 20.7717C3.37017 22.2837 4.68526 23.9756 6.39487 23.9996C7.11218 24.0116 7.57844 23.7956 8.09252 23.5677C8.67833 23.3037 9.31195 23.0157 10.4238 23.0157C11.5356 23.0037 12.1573 23.3037 12.7431 23.5677C13.2453 23.7956 13.6996 24.0116 14.4049 23.9996C16.1265 23.9756 17.5133 22.1037 18.4936 20.5917Z" fill="#292D32"/>
<path fill-rule="evenodd" clip-rule="evenodd" d="M14.5962 0C14.7875 1.31997 14.2495 2.62794 13.5441 3.53993C12.7909 4.52391 11.4758 5.2919 10.2086 5.2439C9.98143 3.97192 10.5672 2.66394 11.2846 1.78796C12.0856 0.827981 13.4365 0.0839983 14.5962 0Z" fill="black"/>
</svg>
