<svg width="28" height="44" viewBox="0 0 28 44" fill="none" xmlns="http://www.w3.org/2000/svg">
<path opacity="0.4" d="M27.162 28.2486V36.9405C27.162 40.5259 24.1063 43.4594 20.3715 43.4594H6.7905C3.05573 43.4594 0 40.5259 0 36.9405V26.0322L8.80505 26.0757C10.4574 26.0757 12.0871 26.4451 13.581 27.1622C15.0749 27.8792 16.7046 28.2486 18.3796 28.2486H27.162Z" fill="white"/>
<path d="M27.162 19.1872V28.2484H18.3796C16.7046 28.2484 15.0749 27.879 13.581 27.1619C12.0871 26.4448 10.4574 26.0754 8.80505 26.0754L0 26.032V19.1872C0 18.1876 0.588571 16.8186 1.33553 16.1016L6.13414 11.4949C6.54157 11.1037 6.7905 10.5388 6.7905 9.9738V6.32324C7.15266 6.45362 7.51482 6.5188 7.92225 6.5188H19.2398C19.6472 6.5188 20.0093 6.45362 20.3715 6.32324V9.9738C20.3715 10.5388 20.6204 11.1037 21.0279 11.4949L25.8265 16.1016C26.5734 16.8186 27.162 18.1876 27.162 19.1872Z" fill="white"/>
<path opacity="0.4" d="M19.2402 0H7.92268C6.04397 0 4.52743 1.45588 4.52743 3.25944C4.52743 4.67186 5.4781 5.88873 6.79093 6.32332C7.15309 6.4537 7.51525 6.51888 7.92268 6.51888H19.2402C19.6476 6.51888 20.0098 6.4537 20.3719 6.32332C21.6848 5.88873 22.6354 4.67186 22.6354 3.25944C22.6354 1.45588 21.1189 0 19.2402 0Z" fill="white"/>
</svg>
