<svg width="35" height="35" viewBox="0 0 35 35" fill="none" xmlns="http://www.w3.org/2000/svg">
<path opacity="0.4" d="M17.5 35C27.165 35 35 27.165 35 17.5C35 7.83502 27.165 0 17.5 0C7.83502 0 0 7.83502 0 17.5C0 27.165 7.83502 35 17.5 35Z" fill="white"/>
<path d="M21.6443 17.5L18.8753 16.597V10.8215H19.5355C21.0208 10.8215 22.2311 12.0311 22.2311 13.5133C22.2311 14.2119 22.8545 14.7911 23.6064 14.7911C24.3582 14.7911 24.9817 14.2119 24.9817 13.5133C24.9817 10.617 22.5428 8.26593 19.5355 8.26593H18.8753V7.27778C18.8753 6.57926 18.2518 6 17.5 6C16.7482 6 16.1247 6.57926 16.1247 7.27778V8.26593H14.9328C12.2188 8.26593 10 10.3956 10 13.0022C10 16.0519 11.9071 17.023 13.3557 17.5L16.1247 18.403V24.1615H15.4645C13.9792 24.1615 12.7689 22.9519 12.7689 21.4696C12.7689 20.7711 12.1455 20.1919 11.3936 20.1919C10.6418 20.1919 10.0183 20.7711 10.0183 21.4696C10.0183 24.3659 12.4572 26.717 15.4645 26.717H16.1247V27.7222C16.1247 28.4207 16.7482 29 17.5 29C18.2518 29 18.8753 28.4207 18.8753 27.7222V26.7341H20.0672C22.7812 26.7341 25 24.6044 25 21.9978C24.9817 18.9311 23.0746 17.96 21.6443 17.5ZM14.2726 15.0978C13.3374 14.7911 12.7689 14.5015 12.7689 13.0193C12.7689 11.8096 13.7408 10.8385 14.9511 10.8385H16.143V15.7111L14.2726 15.0978ZM20.0672 24.1785H18.8753V19.3059L20.7274 19.9022C21.6626 20.2089 22.2311 20.4985 22.2311 21.9807C22.2311 23.1904 21.2592 24.1785 20.0672 24.1785Z" fill="white"/>
</svg>
