<svg width="18" height="18" viewBox="0 0 18 18" fill="none" xmlns="http://www.w3.org/2000/svg">
<path opacity="0.4" d="M12.4099 0.529297H5.08982C1.91019 0.529297 0.0146484 2.42484 0.0146484 5.60447V12.9159C0.0146484 16.1042 1.91019 17.9998 5.08982 17.9998H12.4012C15.5808 17.9998 17.4764 16.1042 17.4764 12.9246V5.60447C17.4851 2.42484 15.5896 0.529297 12.4099 0.529297Z" fill="white"/>
<path d="M16.8737 9.46558H13.8338C12.9777 9.46558 12.2178 9.93728 11.8334 10.706L11.0997 12.156C10.925 12.5054 10.5756 12.7238 10.1912 12.7238H7.32604C7.05525 12.7238 6.6709 12.6627 6.41758 12.156L5.68382 10.7147C5.29947 9.95475 4.53077 9.47431 3.68345 9.47431H0.626115C0.285441 9.47431 0.0146484 9.7451 0.0146484 10.0858V12.9335C0.0146484 16.1044 1.91893 17.9999 5.09856 17.9999H12.4187C15.4149 17.9999 17.258 16.3577 17.4851 13.4401V10.077C17.4851 9.7451 17.2143 9.46558 16.8737 9.46558Z" fill="white"/>
<path d="M10.104 5.59574H7.39607C7.0554 5.59574 6.78461 5.32494 6.78461 4.98427C6.78461 4.64359 7.0554 4.3728 7.39607 4.3728H10.104C10.4447 4.3728 10.7155 4.64359 10.7155 4.98427C10.7155 5.32494 10.4359 5.59574 10.104 5.59574Z" fill="white"/>
<path d="M10.7852 8.03348H6.71455C6.37388 8.03348 6.10309 7.76269 6.10309 7.42201C6.10309 7.08134 6.37388 6.81055 6.71455 6.81055H10.7764C11.1171 6.81055 11.3879 7.08134 11.3879 7.42201C11.3879 7.76269 11.1171 8.03348 10.7852 8.03348Z" fill="white"/>
</svg>
