<svg width="172" height="72" viewBox="0 0 172 72" fill="none" xmlns="http://www.w3.org/2000/svg">
<path d="M16.5389 53.3411L2.06803 67.4854C0.766135 65.7207 0 63.5474 0 61.2118V37.1753L16.5389 53.3411Z" fill="#CFFFD0"/>
<path d="M20.1338 56.8557L35.628 72.0003H11.0366C9.1829 72.0003 7.43632 71.5552 5.90405 70.7645L20.1338 56.8557Z" fill="#CFFFD0"/>
<path d="M15.3495 19.0564L41.6124 44.7268L28.2666 57.7715L0 30.153V19.0564H15.3495Z" fill="#29542A"/>
<path d="M55.9011 19.0564V30.7605L45.2073 41.213L22.5394 19.0564H55.9011Z" fill="#CFFFD0"/>
<path d="M48.8024 44.7271L55.9012 37.7832V51.6658L48.8024 44.7271Z" fill="#29542A"/>
<path d="M45.2073 48.2407L55.901 58.6932V61.2173C55.901 67.1715 50.9613 71.9997 44.8644 71.9997H42.8124L31.8561 61.2906L45.2073 48.2407Z" fill="#CFFFD0"/>
<path d="M27.4951 0C18.4837 0 11.1545 7.04339 10.9562 15.8044H16.0406C16.2388 9.79791 21.3017 4.96965 27.4898 4.96965C33.6778 4.96965 38.7461 9.79791 38.9389 15.8044H44.0233C43.825 7.04339 36.4959 0 27.4844 0H27.4951Z" fill="#CFFFD0"/>
<path d="M66.6109 37.1599V19.0251H74.4383C76.0081 19.0251 77.4171 19.5959 78.7244 20.7166C80.0263 21.8373 80.696 23.3193 80.696 25.1678C80.696 27.0164 80.0584 28.3936 78.778 29.5667C77.4975 30.7397 76.0617 31.3105 74.4383 31.3105H70.7094V37.1651H66.6109V37.1599ZM70.7094 27.6657H74.1972C74.7544 27.6657 75.317 27.4825 75.8206 27.0949C76.3242 26.7022 76.5921 26.0528 76.5921 25.1678C76.5921 24.2828 76.3242 23.6596 75.8206 23.2669C75.317 22.8741 74.7544 22.6699 74.1972 22.6699H70.7094V27.6657Z" fill="white"/>
<path d="M84.6017 37.1597V19.0249H88.7003V33.5149H95.9384V37.1597H84.6017Z" fill="white"/>
<path d="M98.1992 37.1597L105.866 19.0249H109.514L117.181 37.1597H112.815L111.566 34.1171H103.819L102.571 37.1597H98.2046H98.1992ZM104.987 30.9175H110.393L107.704 24.3349L104.987 30.9175Z" fill="white"/>
<path d="M120.717 37.1597V19.0249H124.366L133.254 30.2891V19.0249H137.219V37.1597H133.865L124.682 25.5813V37.1597H120.717Z" fill="white"/>
<path d="M142.164 37.1597V19.0249H154.834V22.6697H146.262V26.0788H154.272V29.645H146.262V33.5201H155.022V37.1649H142.164V37.1597Z" fill="white"/>
<path d="M162.951 37.1597V22.6697H157.92V19.0249H172V22.6697H167.05V37.1597H162.951Z" fill="white"/>
<path d="M66.6109 68.3755V50.2407H74.3848C76.1153 50.2407 77.6047 50.8115 78.8316 51.9845C80.0799 53.1314 80.696 54.5348 80.696 56.2263C80.696 58.5409 79.3941 60.5466 77.3957 61.3792L81.9229 68.3755H77.2939L73.4365 62.3375H70.6934V68.3755H66.6216H66.6109ZM70.6827 58.8028H73.9294C75.5259 58.8028 76.5921 57.813 76.5921 56.2787C76.5921 54.9014 75.5795 53.8855 74.2776 53.8855H70.6827V58.8028Z" fill="white"/>
<path d="M85.4001 68.3755V50.2407H98.0708V53.8855H89.4986V57.2946H97.5082V60.8608H89.4986V64.736H98.2583V68.3807H85.4001V68.3755Z" fill="white"/>
<path d="M101.312 62.8874V59.3474H110.843V62.8874H101.312Z" fill="white"/>
<path d="M115.022 68.3755V50.2407H122.394C123.884 50.2407 125.137 50.6806 126.15 51.5656C127.189 52.4244 127.693 53.5451 127.693 54.87C127.693 56.6138 126.814 57.9911 125.325 58.5147C127.693 58.9284 129.054 60.6985 129.054 63.0183C129.054 64.5527 128.523 65.8566 127.43 66.8673C126.364 67.8832 125.036 68.3755 123.412 68.3755H115.028H115.022ZM119.04 57.4726H121.73C122.903 57.4726 123.728 56.6662 123.728 55.5455C123.728 54.4249 122.903 53.6708 121.757 53.6708H119.04V57.4674V57.4726ZM119.04 64.914H122.582C123.964 64.914 124.977 63.9505 124.977 62.7041C124.977 61.4578 123.964 60.5728 122.555 60.5728H119.04V64.9193V64.914Z" fill="white"/>
<path d="M131.256 68.3755L138.922 50.2407H142.571L150.238 68.3755H145.871L144.623 65.333H136.876L135.622 68.3755H131.256ZM138.044 62.1333H143.45L140.76 55.5508L138.044 62.1333Z" fill="white"/>
<path d="M168.727 52.896L165.957 55.263C164.81 54.1424 163.348 53.5977 161.537 53.5977C159.887 53.5977 158.504 54.1424 157.358 55.2368C156.211 56.3313 155.654 57.6824 155.654 59.3215C155.654 60.9606 156.211 62.3117 157.331 63.4061C158.477 64.4744 159.86 65.019 161.537 65.019C163.214 65.019 164.515 64.553 165.582 63.6156V61.17H160.712V57.63H169.418V64.9667C167.687 67.2289 164.762 68.6586 161.537 68.6586C158.74 68.6586 156.399 67.7736 154.454 66.0035C152.509 64.2073 151.55 61.9974 151.55 59.3162C151.55 56.635 152.509 54.4252 154.454 52.629C156.399 50.8328 158.74 49.9478 161.537 49.9478C164.333 49.9478 166.782 50.9375 168.721 52.8856L168.727 52.896Z" fill="white"/>
</svg>
