<svg width="24" height="24" viewBox="0 0 24 24" fill="none" xmlns="http://www.w3.org/2000/svg">
<g clip-path="url(#clip0_1_604)">
<path fill-rule="evenodd" clip-rule="evenodd" d="M5.3568 0H18.6432C21.6 0 24 2.4048 24 5.3568V18.6432C24 21.6 21.6 24 18.6432 24H5.3568C2.4048 24 0 21.6 0 18.6432V5.3568C0 2.4048 2.4048 0 5.3568 0ZM4.224 12C4.224 16.2864 7.7136 19.776 12 19.776C16.2864 19.776 19.776 16.2864 19.776 12C19.776 7.7136 16.2864 4.2288 12 4.2288C7.7136 4.2288 4.224 7.7136 4.224 12ZM18.2928 3.9984C18.2928 4.9056 19.032 5.64 19.9392 5.64C20.8464 5.64 21.5856 4.9056 21.5856 3.9984C21.5856 3.0912 20.8464 2.352 19.9392 2.352C19.032 2.352 18.2928 3.0912 18.2928 3.9984ZM7.59822 11.9998C7.59822 9.57097 9.57102 7.59817 11.9998 7.59817C14.4286 7.59817 16.4062 9.57097 16.4062 11.9998C16.4062 14.4286 14.4286 16.4062 11.9998 16.4062C9.57102 16.4062 7.59822 14.4286 7.59822 11.9998Z" fill="white"/>
</g>
<defs>
<clipPath id="clip0_1_604">
<rect width="24" height="24" fill="white"/>
</clipPath>
</defs>
</svg>
