<svg width="248" height="320" viewBox="0 0 248 320" fill="none" xmlns="http://www.w3.org/2000/svg">
<path d="M73.4618 237.119L9.29581 299.904C3.52302 292.071 0.125854 282.424 0.125854 272.057V165.362L73.4618 237.119Z" fill="#CFFFD0"/>
<path d="M89.4024 252.717L158.106 319.942H49.0641C40.8444 319.942 33.0998 317.966 26.3055 314.456L89.4024 252.717Z" fill="#CFFFD0"/>
<path d="M68.1879 84.9339L184.642 198.881L125.464 256.785L0.125854 134.19V84.9339H68.1879Z" fill="#29542A"/>
<path d="M248 84.9339V136.887L200.582 183.284L100.069 84.9339H248Z" fill="#CFFFD0"/>
<path d="M216.523 198.882L248 168.059V229.682L216.523 198.882Z" fill="#29542A"/>
<path d="M200.581 214.479L247.999 260.877V272.081C247.999 298.51 226.096 319.942 199.061 319.942H189.962L141.381 272.406L200.581 214.479Z" fill="#CFFFD0"/>
<path d="M122.043 0.345154C82.0853 0.345154 49.5865 31.6098 48.7076 70.4989H71.2523C72.1313 43.8367 94.5811 22.4048 122.02 22.4048C149.458 22.4048 171.932 43.8367 172.787 70.4989H195.332C194.453 31.6098 161.954 0.345154 121.996 0.345154H122.043Z" fill="#CFFFD0"/>
</svg>
