<svg width="105" height="44" viewBox="0 0 105 44" fill="none" xmlns="http://www.w3.org/2000/svg">
<path d="M10.0964 32.5975L1.26246 41.2413C0.467699 40.1629 0 38.8348 0 37.4075V22.7184L10.0964 32.5975Z" fill="#29542A"/>
<path d="M12.291 34.7449L21.7497 43.9999H6.7375C5.60587 43.9999 4.53965 43.7279 3.60425 43.2447L12.291 34.7449Z" fill="#9FC134"/>
<path d="M9.37033 11.6456L25.4029 27.3332L17.2558 35.3049L0 18.4269V11.6456H9.37033Z" fill="#9FC134"/>
<path d="M34.1257 11.6456V18.7982L27.5975 25.1858L13.7595 11.6456H34.1257Z" fill="#79AA00"/>
<path d="M29.7921 27.3332L34.1257 23.0897V31.5735L29.7921 27.3332Z" fill="#29542A"/>
<path d="M27.5974 29.4806L34.1256 35.8683V37.4108C34.1256 41.0494 31.1101 44 27.3881 44H26.1354L19.447 37.4556L27.5974 29.4806Z" fill="#79AA00"/>
<path d="M16.7848 0C11.2836 0 6.80943 4.30431 6.68842 9.6583H9.79224C9.91325 5.98764 13.004 3.03702 16.7816 3.03702C20.5591 3.03702 23.6531 5.98764 23.7709 9.6583H26.8747C26.7537 4.30431 22.2795 0 16.7783 0H16.7848Z" fill="#29542A"/>
<path d="M40.6636 22.7089V11.6265H45.442C46.4002 11.6265 47.2604 11.9753 48.0584 12.6601C48.8532 13.345 49.262 14.2507 49.262 15.3803C49.262 16.51 48.8728 17.3517 48.0912 18.0685C47.3095 18.7854 46.433 19.1342 45.442 19.1342H43.1656V22.7121H40.6636V22.7089ZM43.1656 16.9068H45.2948C45.6349 16.9068 45.9783 16.7948 46.2858 16.558C46.5932 16.318 46.7567 15.9212 46.7567 15.3803C46.7567 14.8395 46.5932 14.4587 46.2858 14.2187C45.9783 13.9786 45.6349 13.8538 45.2948 13.8538H43.1656V16.9068Z" fill="#1E252B"/>
<path d="M51.6464 22.7089V11.6265H54.1484V20.4815H58.567V22.7089H51.6464Z" fill="#1E252B"/>
<path d="M59.9472 22.7089L64.6275 11.6265H66.8548L71.535 22.7089H68.8695L68.1074 20.8495H63.3781L62.616 22.7089H59.9505H59.9472ZM64.0911 18.8942H67.3911L65.7493 14.8715L64.0911 18.8942Z" fill="#1E252B"/>
<path d="M73.6936 22.7089V11.6265H75.9209L81.3469 18.5102V11.6265H83.7671V22.7089H81.7197L76.1139 15.6332V22.7089H73.6936Z" fill="#1E252B"/>
<path d="M86.7859 22.7089V11.6265H94.521V13.8538H89.288V15.9372H94.1776V18.1165H89.288V20.4847H94.6354V22.7121H86.7859V22.7089Z" fill="#1E252B"/>
<path d="M99.476 22.7089V13.8538H96.4048V11.6265H105V13.8538H101.978V22.7089H99.476Z" fill="#1E252B"/>
<path d="M40.6636 41.7854V30.703H45.4092C46.4657 30.703 47.3749 31.0518 48.1239 31.7687C48.8859 32.4695 49.262 33.3272 49.262 34.3609C49.262 35.7754 48.4673 37.0011 47.2473 37.5099L50.011 41.7854H47.1852L44.8303 38.0955H43.1558V41.7854H40.6701H40.6636ZM43.1492 35.9354H45.1312C46.1059 35.9354 46.7567 35.3305 46.7567 34.3929C46.7567 33.5512 46.1386 32.9304 45.3438 32.9304H43.1492V35.9354Z" fill="#1E252B"/>
<path d="M52.1337 41.7854V30.703H59.8688V32.9304H54.6358V35.0137H59.5253V37.1931H54.6358V39.5612H59.9832V41.7886H52.1337V41.7854Z" fill="#1E252B"/>
<path d="M61.8474 38.4317V36.2683H67.6658V38.4317H61.8474Z" fill="#1E252B"/>
<path d="M70.217 41.7854V30.703H74.7174C75.6266 30.703 76.3919 30.9718 77.0101 31.5127C77.6446 32.0375 77.952 32.7223 77.952 33.532C77.952 34.5977 77.4156 35.4393 76.5064 35.7594C77.952 36.0122 78.7827 37.0939 78.7827 38.5116C78.7827 39.4492 78.4589 40.2461 77.7917 40.8637C77.1409 41.4846 76.3298 41.7854 75.3388 41.7854H70.2202H70.217ZM72.6699 35.1225H74.3118C75.0281 35.1225 75.5317 34.6297 75.5317 33.9448C75.5317 33.26 75.0281 32.7992 74.3281 32.7992H72.6699V35.1193V35.1225ZM72.6699 39.6701H74.8318C75.6756 39.6701 76.2938 39.0812 76.2938 38.3196C76.2938 37.5579 75.6756 37.0171 74.8155 37.0171H72.6699V39.6733V39.6701Z" fill="#1E252B"/>
<path d="M80.127 41.7854L84.8072 30.703H87.0345L91.7148 41.7854H89.0492L88.2872 39.9261H83.5578L82.7925 41.7854H80.127ZM84.2708 37.9707H87.5709L85.929 33.948L84.2708 37.9707Z" fill="#1E252B"/>
<path d="M103.002 32.3255L101.311 33.772C100.611 33.0872 99.7179 32.7544 98.6125 32.7544C97.6051 32.7544 96.7613 33.0872 96.0614 33.756C95.3615 34.4249 95.0213 35.2505 95.0213 36.2522C95.0213 37.2539 95.3615 38.0796 96.045 38.7484C96.7449 39.4013 97.5888 39.7341 98.6125 39.7341C99.6362 39.7341 100.431 39.4493 101.082 38.8764V37.3819H98.1088V35.2185H103.424V39.7021C102.367 41.0846 100.581 41.9582 98.6125 41.9582C96.9052 41.9582 95.4759 41.4174 94.2887 40.3357C93.1015 39.238 92.516 37.8875 92.516 36.249C92.516 34.6105 93.1015 33.26 94.2887 32.1623C95.4759 31.0646 96.9052 30.5238 98.6125 30.5238C100.32 30.5238 101.814 31.1286 102.998 32.3191L103.002 32.3255Z" fill="#1E252B"/>
</svg>
