<svg
                width="21"
                height="18"
                viewBox="0 0 21 18"
                fill="none"
                xmlns="http://www.w3.org/2000/svg"
              >
                <path
                  d="M17.9113 5.11745C19.3244 5.11745 20.47 3.97187 20.47 2.55873C20.47 1.14558 19.3244 0 17.9113 0C16.4981 0 15.3525 1.14558 15.3525 2.55873C15.3525 3.97187 16.4981 5.11745 17.9113 5.11745Z"
                  fill="#29542A"
                />
                <path
                  d="M19.1597 5.94648C18.4433 6.17164 17.6552 6.21258 16.8364 6.00789C15.4649 5.64966 14.3493 4.55453 13.9706 3.18305C13.7864 2.51779 13.7762 1.86275 13.8888 1.26913C14.0218 0.614094 13.5612 0 12.9062 0H5.11745C2.04698 0 0 1.53523 0 5.11745V12.2819C0 15.8641 2.04698 17.3993 5.11745 17.3993H15.3523C18.4228 17.3993 20.4698 15.8641 20.4698 12.2819V6.91879C20.4698 6.24329 19.8148 5.73154 19.1597 5.94648ZM13.8376 7.8297L12.6299 8.79178C11.9544 9.33423 11.0946 9.60034 10.2349 9.60034C9.37517 9.60034 8.5052 9.33423 7.83993 8.79178L4.63641 6.23305C4.30889 5.96695 4.25772 5.47567 4.51359 5.14815C4.7797 4.82064 5.26074 4.75923 5.58825 5.02534L8.79178 7.58406C9.56963 8.20839 10.8899 8.20839 11.6678 7.58406L12.8755 6.62198C13.203 6.35587 13.6943 6.40705 13.9502 6.7448C14.2163 7.07232 14.1651 7.56359 13.8376 7.8297Z"
                  fill="#29542A"
                />
              </svg>