<svg width="18" height="18" viewBox="0 0 18 18" fill="none" xmlns="http://www.w3.org/2000/svg">
<path opacity="0.4" d="M8.57934 11.1951L5.71861 14.0515C5.40367 13.772 5.09748 13.4837 4.80003 13.1867C3.89894 12.2782 3.08534 11.3261 2.35922 10.3303C1.64185 9.33446 1.06446 8.33864 0.644534 7.35155C0.22461 6.35573 0.0146484 5.40358 0.0146484 4.49511C0.0146484 3.90111 0.119629 3.33332 0.329591 2.8092C0.539553 2.27635 0.871993 1.78718 1.33566 1.35041C1.89556 0.800091 2.50795 0.529297 3.15533 0.529297C3.40028 0.529297 3.64524 0.581709 3.86395 0.686532C4.09141 0.791355 4.29262 0.94859 4.45009 1.17571L6.47972 4.03214C6.6372 4.25053 6.75092 4.45144 6.82966 4.64361C6.9084 4.82705 6.95214 5.01049 6.95214 5.17647C6.95214 5.38611 6.8909 5.59576 6.76842 5.79667C6.65469 5.99758 6.48847 6.20723 6.27851 6.41687L5.61363 7.10696C5.5174 7.20305 5.47366 7.31661 5.47366 7.45637C5.47366 7.52626 5.48241 7.5874 5.4999 7.65728C5.52615 7.72717 5.55239 7.77958 5.56989 7.83199C5.72736 8.12025 5.99856 8.49587 6.38349 8.95011C6.77717 9.40434 7.19709 9.86731 7.65201 10.3303C7.96695 10.636 8.27315 10.933 8.57934 11.1951Z" fill="white"/>
<path d="M17.4851 14.7941C17.4851 15.0387 17.4414 15.292 17.3539 15.5366C17.3276 15.6064 17.3014 15.6763 17.2664 15.7462C17.1177 16.0607 16.9252 16.3577 16.6715 16.6372C16.2428 17.1089 15.7704 17.4496 15.2368 17.668C15.228 17.668 15.2193 17.6767 15.2105 17.6767C14.6944 17.8864 14.1345 17.9999 13.5308 17.9999C12.6385 17.9999 11.6849 17.7903 10.6789 17.3622C9.67278 16.9342 8.66672 16.3577 7.6694 15.6327C7.32821 15.3793 6.98702 15.126 6.66333 14.8552L9.52406 11.9988C9.76902 12.1822 9.98773 12.322 10.1714 12.4181C10.2152 12.4355 10.2677 12.4617 10.3289 12.488C10.3989 12.5142 10.4689 12.5229 10.5476 12.5229C10.6963 12.5229 10.8101 12.4705 10.9063 12.3744L11.5712 11.7192C11.7899 11.5009 11.9999 11.3349 12.2011 11.2301C12.4023 11.1078 12.6035 11.0466 12.8222 11.0466C12.9884 11.0466 13.1634 11.0816 13.3559 11.1602C13.5483 11.2388 13.7495 11.3524 13.9683 11.5009L16.864 13.5537C17.0914 13.7109 17.2489 13.8943 17.3451 14.1127C17.4326 14.3311 17.4851 14.5495 17.4851 14.7941Z" fill="white"/>
</svg>
