 <svg
                width="140"
                height="22"
                viewBox="0 0 140 22"
                fill="none"
                xmlns="http://www.w3.org/2000/svg"
              >
                <path
                  d="M12.9018 1.5886L14.8378 5.49216C15.1018 6.03556 15.8058 6.55677 16.3998 6.65658L19.9088 7.24433C22.1528 7.62138 22.6808 9.26265 21.0638 10.8817L18.3358 13.632C17.8738 14.0978 17.6208 14.996 17.7638 15.6392L18.5448 19.0437C19.1608 21.7385 17.7418 22.781 15.3768 21.3726L12.0878 19.4097C11.4938 19.0548 10.5148 19.0548 9.90982 19.4097L6.62082 21.3726C4.26682 22.781 2.83682 21.7274 3.45282 19.0437L4.23382 15.6392C4.37682 14.996 4.12382 14.0978 3.66182 13.632L0.933825 10.8817C-0.672174 9.26265 -0.155174 7.62138 2.08883 7.24433L5.59782 6.65658C6.18082 6.55677 6.88482 6.03556 7.14882 5.49216L9.08482 1.5886C10.1408 -0.529532 11.8568 -0.529532 12.9018 1.5886Z"
                  fill="#FFDF00"
                />
                <path
                  d="M71.5734 1.5886L73.5094 5.49216C73.7734 6.03556 74.4774 6.55677 75.0714 6.65658L78.5804 7.24433C80.8244 7.62138 81.3524 9.26265 79.7354 10.8817L77.0074 13.632C76.5454 14.0978 76.2924 14.996 76.4354 15.6392L77.2164 19.0437C77.8324 21.7385 76.4134 22.781 74.0484 21.3726L70.7594 19.4097C70.1654 19.0548 69.1864 19.0548 68.5814 19.4097L65.2924 21.3726C62.9384 22.781 61.5084 21.7274 62.1244 19.0437L62.9054 15.6392C63.0484 14.996 62.7954 14.0978 62.3334 13.632L59.6054 10.8817C57.9994 9.26265 58.5164 7.62138 60.7604 7.24433L64.2694 6.65658C64.8524 6.55677 65.5564 6.03556 65.8204 5.49216L67.7564 1.5886C68.8124 -0.529532 70.5284 -0.529532 71.5734 1.5886Z"
                  fill="#FDCC0D"
                />
                <path
                  d="M42.2376 1.5886L44.1736 5.49216C44.4376 6.03556 45.1416 6.55677 45.7356 6.65658L49.2446 7.24433C51.4886 7.62138 52.0166 9.26265 50.3996 10.8817L47.6716 13.632C47.2096 14.0978 46.9566 14.996 47.0996 15.6392L47.8806 19.0437C48.4966 21.7385 47.0776 22.781 44.7126 21.3726L41.4236 19.4097C40.8296 19.0548 39.8506 19.0548 39.2456 19.4097L35.9566 21.3726C33.6026 22.781 32.1726 21.7274 32.7886 19.0437L33.5696 15.6392C33.7126 14.996 33.4596 14.0978 32.9976 13.632L30.2696 10.8817C28.6636 9.26265 29.1806 7.62138 31.4246 7.24433L34.9336 6.65658C35.5166 6.55677 36.2206 6.03556 36.4846 5.49216L38.4206 1.5886C39.4766 -0.529532 41.1926 -0.529532 42.2376 1.5886Z"
                  fill="#FDCC0D"
                />
                <path
                  d="M100.909 1.5886L102.845 5.49216C103.109 6.03556 103.813 6.55677 104.407 6.65658L107.916 7.24433C110.16 7.62138 110.688 9.26265 109.071 10.8817L106.343 13.632C105.881 14.0978 105.628 14.996 105.771 15.6392L106.552 19.0437C107.168 21.7385 105.749 22.781 103.384 21.3726L100.095 19.4097C99.501 19.0548 98.522 19.0548 97.917 19.4097L94.628 21.3726C92.274 22.781 90.844 21.7274 91.46 19.0437L92.241 15.6392C92.384 14.996 92.131 14.0978 91.669 13.632L88.941 10.8817C87.335 9.26265 87.852 7.62138 90.096 7.24433L93.605 6.65658C94.188 6.55677 94.892 6.03556 95.156 5.49216L97.092 1.5886C98.148 -0.529532 99.864 -0.529532 100.909 1.5886Z"
                  fill="#FDCC0D"
                />
                <path
                  d="M130.245 1.5886L132.181 5.49216C132.445 6.03556 133.149 6.55677 133.743 6.65658L137.252 7.24433C139.496 7.62138 140.024 9.26265 138.407 10.8817L135.679 13.632C135.217 14.0978 134.964 14.996 135.107 15.6392L135.888 19.0437C136.504 21.7385 135.085 22.781 132.72 21.3726L129.431 19.4097C128.837 19.0548 127.858 19.0548 127.253 19.4097L123.964 21.3726C121.61 22.781 120.18 21.7274 120.796 19.0437L121.577 15.6392C121.72 14.996 121.467 14.0978 121.005 13.632L118.277 10.8817C116.671 9.26265 117.188 7.62138 119.432 7.24433L122.941 6.65658C123.524 6.55677 124.228 6.03556 124.492 5.49216L126.428 1.5886C127.484 -0.529532 129.2 -0.529532 130.245 1.5886Z"
                  fill="#FDCC0D"
                />
              </svg>