<svg width="74" height="74" viewBox="0 0 74 74" fill="none" xmlns="http://www.w3.org/2000/svg">
<g id="Group 1000001726">
<rect id="Rectangle 208" x="1.5" y="1.5" width="71" height="71" rx="12.5" fill="#29542A" stroke="#29542A" stroke-width="3"/>
<g id="Group 1000000903">
<path id="Vector" opacity="0.4" d="M47.2293 29.2586C46.2774 29.2586 45.5208 28.4941 45.5208 27.5322V24.3752C45.5208 21.9581 44.4956 19.6398 42.7383 18.0119C40.9321 16.3595 38.6133 15.5949 36.1725 15.8169C32.0719 16.2115 28.484 20.429 28.484 24.8191V27.0389C28.484 28.0008 27.7273 28.7654 26.7754 28.7654C25.8235 28.7654 25.0668 28.0008 25.0668 27.0389V24.8191C25.0668 18.6532 29.9973 12.9559 35.8308 12.3886C39.2235 12.068 42.4942 13.1532 45.0082 15.4716C47.4978 17.7406 48.9135 20.9963 48.9135 24.3752V27.5322C48.9135 28.4941 48.1568 29.2586 47.2293 29.2586Z" fill="white"/>
<path id="Vector_2" d="M56.4307 29.5052C54.3804 27.2114 51.0121 26.1016 46.0817 26.1016H27.9221C22.9917 26.1016 19.6233 27.2114 17.5731 29.5052C15.2055 32.1689 15.2787 35.7204 15.5472 38.1868L17.2558 51.9245C17.7683 56.734 19.6966 61.6667 30.192 61.6667H43.8117C54.3072 61.6667 56.2354 56.734 56.748 51.9492L58.4566 38.1622C58.725 35.7204 58.7739 32.1689 56.4307 29.5052ZM28.2638 39.8393H28.2394C26.8969 39.8393 25.7986 38.7294 25.7986 37.3729C25.7986 36.0164 26.8969 34.9065 28.2394 34.9065C29.6062 34.9065 30.7046 36.0164 30.7046 37.3729C30.7046 38.7294 29.6062 39.8393 28.2638 39.8393ZM45.3494 39.8393H45.325C43.9826 39.8393 42.8842 38.7294 42.8842 37.3729C42.8842 36.0164 43.9826 34.9065 45.325 34.9065C46.6919 34.9065 47.7902 36.0164 47.7902 37.3729C47.7902 38.7294 46.6919 39.8393 45.3494 39.8393Z" fill="white"/>
</g>
</g>
</svg>
