<svg width="253" height="254" viewBox="0 0 253 254" fill="none" xmlns="http://www.w3.org/2000/svg">
<mask id="mask0_1_161" style="mask-type:alpha" maskUnits="userSpaceOnUse" x="0" y="0" width="253" height="254">
<ellipse cx="126.5" cy="127" rx="126.5" ry="127" fill="#526D00"/>
</mask>
<g mask="url(#mask0_1_161)">
<path d="M71.9053 164.255L3.16568 231.942C-3.01859 223.497 -6.6579 213.097 -6.6579 201.92V86.8947L71.9053 164.255Z" fill="#526D00"/>
<path d="M89.5427 181.811L163.118 254H46.3436C37.541 254 29.2472 251.878 21.971 248.109L89.5427 181.811Z" fill="#9FC134"/>
<path d="M66.5275 0L191.747 123.21L128.116 185.821L-6.6579 53.2605V0H66.5275Z" fill="#9FC134"/>
<path d="M259.658 0V56.1412L208.652 106.279L100.534 0H259.658Z" fill="#79AA00"/>
<path d="M226.368 123.671L259.658 90.2368V157.079L226.368 123.671Z" fill="#526D00"/>
<path d="M209.024 140.368L259.658 190.359V202.431C259.658 230.908 236.269 254 207.401 254H197.685L145.808 202.782L209.024 140.368Z" fill="#79AA00"/>
</g>
</svg>
